PathFileType	3	(X/Y/Z)	C:\Users\koon_\Desktop\
DataRate	CameraRate	NumFrames	NumMarkers	Units	OrigDataRate	OrigDataStartFrame	OrigNumFrames
100.0	100.0	7	27	mm	100.0	3769	5024	
Frame#	Time	get:LFHD			get:RFHD			get:LBHD			get:RBHD			get:C7			get:T10			get:CLAV			get:STRN			get:RBAK			get:LSHO			get:LUPA			get:LELB			get:LFRA			get:LWRA			get:LWRB			get:LFIN			get:RSHO			get:RUPA			get:RELB			get:RFRA			get:RWRA			get:RWRB			get:RFIN			get:LASI			get:RASI			get:LPSI			get:RPSI			
		X1	Y1	Z1	X2	Y2	Z2	X3	Y3	Z3	X4	Y4	Z4	X5	Y5	Z5	X6	Y6	Z6	X7	Y7	Z7	X8	Y8	Z8	X9	Y9	Z9	X10	Y10	Z10	X11	Y11	Z11	X12	Y12	Z12	X13	Y13	Z13	X14	Y14	Z14	X15	Y15	Z15	X16	Y16	Z16	X17	Y17	Z17	X18	Y18	Z18	X19	Y19	Z19	X20	Y20	Z20	X21	Y21	Z21	X22	Y22	Z22	X23	Y23	Z23	X24	Y24	Z24	X25	Y25	Z25	X26	Y26	Z26	X27	Y27	Z27	
3769	37.68	19.855556	1542.614	-7.1414757	-118.67056	1551.7607	-55.190071	59.399166	1509.2355	-134.98564	-86.324692	1515.2908	-180.15063	8.1639719	1341.4824	-171.48558	51.1521	1142.9655	-216.76726	-69.188911	1228.0787	-5.8654199	-56.957523	1067.5453	16.175606	-53.665409	1262.6439	-234.62856	95.727448	1351.339	-32.366913	77.214622	1287.4053	125.45776	112.80129	1238.842	247.80209	37.723011	1293.8461	217.39265	-105.90245	1331.8949	185.57942	-132.0631	1312.9307	253.11035	-196.05511	1345.1365	202.29216	-156.82832	1319.8511	-139.96788	-237.608	1212.2468	-192.13292	-286.75507	1039.8348	-312.17365	-266.74521	1037.5031	-153.45995	-242.91306	1016.1419	-62.131767	-264.34894	952.21112	-89.452927	-245.9539	969.9361	3.0526257	118.52972	889.94733	-33.433071	-169.78995	910.31	-101.6496	68.962379	941.41718	-229.27811	-16.005247	939.15656	-252.33022
3770	37.69	19.946217	1542.6423	-7.3132601	-118.63656	1551.7908	-55.254852	59.342182	1509.3796	-135.27141	-86.472542	1515.3678	-180.26262	8.150507	1341.4839	-171.69507	50.739651	1142.9252	-217.07005	-68.861816	1228.1644	-5.8982463	-56.879261	1067.6179	16.151407	-53.802444	1262.634	-234.76817	95.984711	1351.2053	-32.584244	77.442146	1286.8629	125.0765	112.90401	1237.9268	247.34575	37.798523	1292.8893	217.174	-106.12428	1330.7061	185.59076	-131.97688	1311.6199	253.18634	-196.11064	1343.9995	202.88446	-156.83093	1319.9652	-140.02495	-237.71716	1212.339	-191.95386	-286.92029	1039.6704	-311.72037	-266.79279	1037.467	-153.38266	-242.87732	1016.06	-61.886082	-264.27051	952.13263	-89.112617	-245.92346	969.85291	3.4569247	118.72951	890.05969	-33.888252	-169.80434	910.28748	-101.4128	68.52137	941.48279	-229.60277	-16.521868	939.24408	-252.4063
3771	37.7	20.050945	1542.6549	-7.5057983	-118.60292	1551.8632	-55.212662	59.300186	1509.5323	-135.54395	-86.571335	1515.6057	-180.3651	8.0982637	1341.4683	-171.90172	50.3895	1142.865	-217.33096	-68.63047	1228.2483	-5.9578404	-56.868156	1067.7021	16.156654	-54.029083	1262.6702	-234.88811	96.204071	1351.0668	-32.793606	77.764984	1286.2545	124.86413	113.19115	1237.0004	246.89192	37.871185	1291.934	216.9975	-106.30947	1329.5168	185.59517	-131.79608	1310.2662	253.26607	-196.15016	1342.9049	203.48701	-156.83995	1320.0966	-140.01909	-237.86659	1212.423	-191.75279	-287.21164	1039.4785	-311.1723	-266.74896	1037.4885	-153.01355	-242.72028	1016.1124	-61.279339	-264.11691	952.13275	-88.504204	-245.82397	969.9007	4.0342989	118.87197	890.14722	-34.301212	-169.84877	910.27856	-101.28493	68.159096	941.56567	-229.92155	-16.960712	939.28192	-252.50009
3772	37.71	20.261942	1542.6443	-7.6697712	-118.49696	1551.9197	-55.157028	59.229534	1509.6703	-135.86365	-86.678329	1515.8391	-180.43808	8.0126076	1341.4648	-172.10919	50.076008	1142.8514	-217.61885	-68.432655	1228.3165	-6.0378861	-56.86211	1067.7638	16.158497	-54.255497	1262.7335	-235.07468	96.370186	1350.9276	-33.020397	78.120842	1285.6826	124.40949	113.55304	1236.0347	246.30489	38.129524	1290.9612	216.7812	-106.30432	1328.3938	185.7258	-131.57426	1308.9696	253.45456	-196.07414	1341.7162	204.12032	-156.94145	1320.1747	-139.79567	-238.04424	1212.4642	-191.42772	-287.58414	1039.2711	-310.44373	-266.68231	1037.473	-152.04758	-242.49078	1016.2802	-60.828434	-263.9118	952.24805	-87.753525	-245.55673	970.11304	4.7605453	119.02857	890.23718	-34.667	-169.91971	910.2674	-101.13351	67.923645	941.66699	-230.17664	-17.27721	939.37604	-252.5708
3773	37.72	20.420321	1542.5862	-7.87607	-118.35779	1551.9882	-55.00853	59.163445	1509.8026	-136.14923	-86.984337	1516.3177	-180.69612	7.9347558	1341.4839	-172.37759	49.740177	1142.8224	-217.95595	-68.213371	1228.3809	-6.1646438	-56.837692	1067.8098	16.096991	-54.482857	1262.7135	-235.18721	96.596893	1350.7864	-33.342422	78.515869	1285.085	123.92834	114.01594	1235.1564	245.81842	38.420837	1290.069	216.52879	-106.31462	1327.241	185.911	-131.23331	1307.7128	253.76123	-195.98795	1340.505	204.7238	-156.98105	1320.3024	-139.81256	-238.2865	1212.5037	-191.02492	-288.05399	1039.0299	-309.54523	-266.60034	1037.5439	-151.11583	-242.18434	1016.5276	-59.925278	-263.6178	952.42468	-86.716805	-245.12068	970.46613	5.6869278	119.06665	890.30896	-35.03616	-169.87355	910.09698	-100.58649	67.677139	941.7572	-230.38773	-17.584352	939.40918	-252.59299
3774	37.73	20.70879	1542.5015	-8.0251837	-118.19394	1552.0723	-54.813766	59.123535	1509.9232	-136.44891	-87.370941	1516.3687	-180.61192	7.8675246	1341.4536	-172.64507	49.473091	1142.7937	-218.28635	-68.023743	1228.4379	-6.3355207	-56.819984	1067.8867	15.990026	-54.748634	1262.7224	-235.36168	96.80954	1350.6077	-33.70015	78.984131	1284.5383	123.42056	114.58437	1234.3801	245.2744	38.766529	1289.2465	216.36168	-106.31496	1326.125	186.23657	-130.87479	1306.4799	254.09508	-195.88327	1339.2021	205.32138	-156.98775	1320.4276	-139.87924	-238.4489	1212.5381	-190.62552	-288.61804	1038.7084	-308.49301	-266.53726	1037.6038	-149.99231	-241.82826	1016.8587	-59.000462	-263.39853	952.72833	-85.612701	-244.65582	970.92761	6.6619177	119.12104	890.34204	-35.394512	-169.91583	910.23846	-100.57628	67.499428	941.82538	-230.66928	-17.762053	939.44794	-252.68718
3775	37.74	20.9529	1542.3848	-8.190877	-118.0135	1552.1062	-54.709	59.129585	1510.0385	-136.74419	-87.563004	1516.6036	-180.59619	7.8205438	1341.4318	-172.93221	49.17329	1142.7495	-218.62808	-67.77684	1228.4957	-6.4981399	-56.75211	1067.9578	15.869923	-55.047188	1262.6555	-235.56444	96.985687	1350.4073	-34.05912	79.519562	1284.0837	123.02645	115.18393	1233.7928	244.70389	39.105091	1288.5223	216.18056	-106.22517	1325.0199	186.61954	-130.54517	1305.2148	254.55707	-195.84247	1337.8525	206.14943	-156.93591	1320.5941	-140.19049	-238.63638	1212.5796	-190.15413	-289.26154	1038.4479	-307.40491	-266.58701	1037.792	-149.35806	-241.42412	1017.2634	-58.066677	-263.09634	953.08521	-84.343765	-244.0632	971.50421	7.7833967	119.15339	890.34045	-35.693104	-169.99797	910.20599	-100.60023	67.360909	941.85406	-230.87883	-17.949549	939.46716	-252.78122
